<svg xmlns="http://www.w3.org/2000/svg" width="20" height="20" fill="none">
  <path fill="#818DA9" d="M9.958 12.116c2.859 0 5.3.454 5.3 2.268 0 1.813-2.425 2.283-5.3 2.283-2.86 0-5.301-.454-5.301-2.267 0-1.814 2.426-2.284 5.3-2.284Zm4.571-1.092c1.093-.02 2.269.13 2.703.236.92.181 1.525.55 1.776 1.087.212.44.212.952 0 1.392-.384.832-1.62 1.1-2.1 1.168-.1.015-.18-.071-.17-.171.246-2.306-1.707-3.4-2.212-3.651-.021-.012-.026-.029-.024-.04.002-.007.01-.019.027-.021Zm-9.263-.002.205.002c.017.003.025.015.026.021.003.012-.002.028-.023.04-.506.251-2.458 1.345-2.213 3.65.01.101-.068.187-.168.172-.48-.069-1.717-.336-2.1-1.168a1.597 1.597 0 0 1 0-1.392c.25-.536.855-.905 1.775-1.087.435-.106 1.61-.256 2.703-.236l-.205-.002Zm4.692-7.689a3.505 3.505 0 0 1 3.507 3.528 3.506 3.506 0 0 1-3.507 3.528A3.506 3.506 0 0 1 6.45 6.86a3.505 3.505 0 0 1 3.508-3.528Zm4.761.588c1.88 0 3.358 1.78 2.855 3.762-.34 1.334-1.569 2.22-2.938 2.185a2.832 2.832 0 0 1-.403-.04.132.132 0 0 1-.089-.203c.523-.773.82-1.703.82-2.7a4.838 4.838 0 0 0-.89-2.81c-.018-.025-.031-.063-.013-.091.015-.024.042-.036.068-.042.19-.039.386-.06.59-.06Zm-9.439 0c.204 0 .4.022.59.061.026.006.055.019.07.041.017.029.004.067-.014.092a4.839 4.839 0 0 0-.89 2.81c0 .997.298 1.927.82 2.7a.132.132 0 0 1-.089.204 2.734 2.734 0 0 1-.403.039c-1.369.036-2.598-.85-2.937-2.185-.504-1.982.973-3.762 2.853-3.762Z"/>
</svg>