<svg xmlns="http://www.w3.org/2000/svg" width="24" height="25" fill="none">
  <path fill="#2D416F" d="M9.135 21.273v-3.057c0-.78.637-1.414 1.423-1.414h2.875c.377 0 .74.15 1.006.414.267.265.417.625.417 1v3.057c-.002.325.126.637.356.867.23.23.544.36.87.36h1.962a3.46 3.46 0 0 0 2.443-1 3.41 3.41 0 0 0 1.013-2.422v-8.711c0-.735-.328-1.431-.895-1.902l-6.671-5.29a3.097 3.097 0 0 0-3.949.072L3.467 8.465a2.474 2.474 0 0 0-.967 1.902v8.702c0 1.895 1.547 3.431 3.456 3.431h1.916c.68 0 1.231-.544 1.236-1.218l.027-.009Z"/>
</svg>