<svg xmlns="http://www.w3.org/2000/svg" width="20" height="21" fill="none">
  <path fill="#2D416F" d="M8.303 16.523c.416-.088 2.955-.088 3.371 0 .357.082.742.274.742.694-.021.4-.255.754-.58.979-.42.327-.912.534-1.427.61a3.165 3.165 0 0 1-.84 0 3.014 3.014 0 0 1-1.428-.611c-.324-.224-.559-.578-.58-.978 0-.42.386-.612.742-.694Zm1.735-14.357c1.733 0 3.504.823 4.556 2.188.682.878.995 1.756.995 3.121v.355c0 1.047.277 1.664.886 2.374.46.524.608 1.196.608 1.926 0 .728-.239 1.42-.718 1.981a3.78 3.78 0 0 1-2.417 1.178c-1.31.112-2.62.206-3.948.206-1.328 0-2.637-.057-3.947-.206a3.776 3.776 0 0 1-2.417-1.178 3.013 3.013 0 0 1-.72-1.981c0-.73.149-1.402.61-1.926.627-.71.886-1.327.886-2.374v-.355c0-1.402.35-2.318 1.069-3.215C6.55 2.95 8.266 2.167 9.963 2.167h.075Z"/>
  <circle cx="15" cy="4.5" r="2.5" fill="#E05453" stroke="#fff"/>
</svg>