<svg xmlns="http://www.w3.org/2000/svg" width="20" height="20" fill="none">
  <path fill="#818DA9" d="M12.813 12.188h.937v-.938A1.25 1.25 0 0 0 12.5 10h-5a1.25 1.25 0 0 0-1.25 1.25v.938h.938a1.25 1.25 0 0 1 1.25 1.25v3.124a1.25 1.25 0 0 1-1.25 1.25H4.063a1.25 1.25 0 0 1-1.25-1.25v-3.125a1.25 1.25 0 0 1 1.25-1.25H5v-.937a2.508 2.508 0 0 1 2.5-2.5h1.875V6.562H8.75a1.25 1.25 0 0 1-1.25-1.25v-2.5a1.25 1.25 0 0 1 1.25-1.25h2.5a1.25 1.25 0 0 1 1.25 1.25v2.5a1.25 1.25 0 0 1-1.25 1.25h-.625V8.75H12.5a2.508 2.508 0 0 1 2.5 2.5v.938h.938a1.25 1.25 0 0 1 1.25 1.25v3.124a1.25 1.25 0 0 1-1.25 1.25h-3.126a1.25 1.25 0 0 1-1.25-1.25v-3.125a1.25 1.25 0 0 1 1.25-1.25Z"/>
</svg>