<svg xmlns="http://www.w3.org/2000/svg" width="20" height="20" fill="none">
  <path fill="#818DA9" d="M10.598 1.667c.63 0 1.2.35 1.515.866.154.25.256.559.23.884-.017.25.06.5.196.733.435.708 1.397.975 2.146.575a1.76 1.76 0 0 1 2.393.633l.571.984a1.69 1.69 0 0 1-.63 2.358c-.724.425-.98 1.367-.545 2.083.136.225.29.417.528.534.298.158.528.408.69.658.315.517.29 1.15-.017 1.708l-.597 1a1.775 1.775 0 0 1-1.507.867c-.298 0-.63-.083-.903-.25-.221-.142-.476-.192-.749-.192a1.59 1.59 0 0 0-1.575 1.517c0 .958-.784 1.708-1.763 1.708H9.422c-.988 0-1.771-.75-1.771-1.708-.017-.825-.724-1.517-1.567-1.517-.281 0-.537.05-.75.192-.272.167-.613.25-.902.25-.613 0-1.201-.333-1.516-.867l-.588-1c-.315-.541-.332-1.191-.017-1.708.136-.25.392-.5.682-.658.238-.117.391-.309.536-.534.426-.716.17-1.658-.553-2.083a1.703 1.703 0 0 1-.63-2.358l.57-.984a1.77 1.77 0 0 1 2.401-.633c.741.4 1.704.133 2.138-.575.136-.233.213-.483.196-.733a1.487 1.487 0 0 1 .238-.884c.316-.516.886-.85 1.508-.866h1.2ZM10.01 7.65c-1.337 0-2.419 1.05-2.419 2.358 0 1.309 1.082 2.35 2.419 2.35s2.393-1.041 2.393-2.35c0-1.308-1.056-2.358-2.393-2.358Z"/>
</svg>