<svg xmlns="http://www.w3.org/2000/svg" width="24" height="25" fill="none">
  <rect width="24" height="24" y=".5" fill="#2D416F" rx="4"/>
  <path stroke="#fff" stroke-linecap="round" stroke-linejoin="round" stroke-width="1.5" d="M6.375 15.625h1.498a3.124 3.124 0 0 0 2.56-1.333l.11-.158m2.288-3.267.11-.159a3.125 3.125 0 0 1 2.56-1.333h2.124"/>
  <path stroke="#fff" stroke-linecap="round" stroke-linejoin="round" stroke-width="1.5" d="m15.75 7.5 1.875 1.875-1.875 1.875M6.375 9.375h1.498a3.125 3.125 0 0 1 2.56 1.333l2.509 3.584a3.126 3.126 0 0 0 2.56 1.333h2.123"/>
  <path stroke="#fff" stroke-linecap="round" stroke-linejoin="round" stroke-width="1.5" d="m15.75 17.5 1.875-1.875-1.875-1.875"/>
</svg>