<svg xmlns="http://www.w3.org/2000/svg" width="102" height="102" fill="none">
  <circle cx="51" cy="51" r="51" fill="#FCEEEE"/>
  <path stroke="#E05453" stroke-linecap="round" stroke-linejoin="round" stroke-width="5" d="M69.728 42.854s-1.425 17.68-2.252 25.127c-.394 3.556-2.591 5.64-6.19 5.706-6.849.124-13.705.132-20.551-.013-3.463-.07-5.623-2.181-6.009-5.675-.832-7.513-2.25-25.145-2.25-25.145M73.359 34.38H28.844M64.782 34.38a4.326 4.326 0 0 1-4.24-3.476l-.638-3.192a3.36 3.36 0 0 0-3.247-2.491H45.546a3.36 3.36 0 0 0-3.248 2.49l-.637 3.193a4.326 4.326 0 0 1-4.24 3.475"/>
</svg>