<svg width="20" height="20" viewBox="0 0 20 20" fill="none" xmlns="http://www.w3.org/2000/svg">
<path d="M6.59996 11.2248C7.77496 11.2248 8.71663 12.1757 8.71663 13.359V16.1998C8.71663 17.3748 7.77496 18.3332 6.59996 18.3332H3.78329C2.61663 18.3332 1.66663 17.3748 1.66663 16.1998V13.359C1.66663 12.1757 2.61663 11.2248 3.78329 11.2248H6.59996ZM16.2167 11.2248C17.3834 11.2248 18.3334 12.1757 18.3334 13.359V16.1998C18.3334 17.3748 17.3834 18.3332 16.2167 18.3332H13.4C12.225 18.3332 11.2834 17.3748 11.2834 16.1998V13.359C11.2834 12.1757 12.225 11.2248 13.4 11.2248H16.2167ZM6.59996 1.66675C7.77496 1.66675 8.71663 2.62508 8.71663 3.80092V6.64175C8.71663 7.82508 7.77496 8.77508 6.59996 8.77508H3.78329C2.61663 8.77508 1.66663 7.82508 1.66663 6.64175V3.80092C1.66663 2.62508 2.61663 1.66675 3.78329 1.66675H6.59996ZM16.2167 1.66675C17.3834 1.66675 18.3334 2.62508 18.3334 3.80092V6.64175C18.3334 7.82508 17.3834 8.77508 16.2167 8.77508H13.4C12.225 8.77508 11.2834 7.82508 11.2834 6.64175V3.80092C11.2834 2.62508 12.225 1.66675 13.4 1.66675H16.2167Z" fill="#818DA9"/>
</svg>
