<svg xmlns="http://www.w3.org/2000/svg" width="41" height="40" fill="none">
  <rect width="40" height="40" x=".2" fill="#2D416F" rx="6"/>
  <path fill="#fff" d="M25.668 21.683c1.583 0 2.865 1.26 2.865 2.816 0 1.555-1.282 2.816-2.865 2.816-1.583 0-2.866-1.261-2.866-2.816s1.283-2.816 2.866-2.816Zm-7.065 1.615c.693 0 1.256.553 1.256 1.235 0 .68-.563 1.234-1.256 1.234h-5.48a1.247 1.247 0 0 1-1.256-1.234c0-.682.563-1.235 1.256-1.235h5.48ZM14.733 12.5c1.583 0 2.865 1.26 2.865 2.816 0 1.555-1.282 2.816-2.866 2.816-1.582 0-2.865-1.261-2.865-2.817 0-1.554 1.283-2.815 2.865-2.815Zm12.545 1.582c.692 0 1.255.553 1.255 1.233 0 .682-.563 1.235-1.255 1.235h-5.48a1.246 1.246 0 0 1-1.256-1.235c0-.68.563-1.233 1.256-1.233h5.48Z"/>
</svg>