<svg xmlns="http://www.w3.org/2000/svg" width="20" height="20" fill="none">
  <path fill="#818DA9" d="M12.875 3.15c-.034.209-.05.417-.05.625a3.387 3.387 0 0 0 3.383 3.391c.208 0 .408-.024.617-.057v6.724c0 2.826-1.667 4.5-4.5 4.5H6.167c-2.834 0-4.5-1.674-4.5-4.5V7.667c0-2.833 1.666-4.517 4.5-4.517h6.708Zm.167 5.067a.64.64 0 0 0-.584.258l-2.016 2.609-2.309-1.817a.658.658 0 0 0-.475-.133.646.646 0 0 0-.417.249l-2.465 3.209-.051.075a.623.623 0 0 0 .175.792.7.7 0 0 0 .383.125.59.59 0 0 0 .492-.25l2.091-2.693 2.375 1.784.075.05c.267.141.6.075.792-.175l2.408-3.108-.033.017a.624.624 0 0 0 .067-.625.614.614 0 0 0-.508-.367Zm3.283-6.55a2.01 2.01 0 0 1 0 4.016 2.01 2.01 0 0 1 0-4.016Z"/>
</svg>